<svg width="80" height="62" viewBox="0 0 80 62" fill="none" xmlns="http://www.w3.org/2000/svg">
<path d="M28.1068 11.5756C28.1483 11.6956 28.2525 11.8068 28.3895 11.7682C28.6492 11.6952 28.7866 10.9349 28.6762 10.6477C28.4957 10.2871 27.896 10.922 28.1068 11.5756Z" fill="#5F1BBD"/>
<path d="M32.0064 12.7158C32.1045 12.4951 32.1515 12.2551 32.1438 12.0136C32.1446 11.977 32.1341 11.941 32.1136 11.9106C32.0932 11.8802 32.0639 11.8568 32.0296 11.8438C31.9954 11.8307 31.958 11.8285 31.9225 11.8375C31.887 11.8465 31.8551 11.8663 31.8313 11.8941C31.7302 12.0115 31.6544 12.1485 31.6087 12.2965C31.563 12.4446 31.5483 12.6005 31.5657 12.7544C31.6047 12.9449 31.8321 13.0644 32.0064 12.7158Z" fill="#5F1BBD"/>
<path d="M30.8179 15.5128C30.9093 15.4796 30.9858 15.4147 31.0334 15.3299C31.0811 15.245 31.0966 15.1459 31.0772 15.0505C30.9917 14.616 30.129 13.1178 31.0453 11.5371C31.132 11.391 30.9096 11.2466 30.7909 11.4047C30.5595 11.7231 30.3943 12.0845 30.3049 12.4678C30.2155 12.8511 30.2038 13.2483 30.2705 13.6362C30.4688 14.8604 30.7232 15.0472 30.6257 15.175C30.5487 15.2123 30.4648 15.2334 30.3792 15.2368C30.1582 15.2399 29.938 15.2119 29.7247 15.1538C29.6816 15.1496 29.6382 15.16 29.6017 15.1835C29.5653 15.207 29.5378 15.2422 29.5239 15.2833C29.5099 15.3243 29.5103 15.3689 29.5249 15.4098C29.5395 15.4506 29.5675 15.4853 29.6044 15.5082C29.7915 15.6063 29.9994 15.6579 30.2106 15.6587C30.4218 15.6595 30.6301 15.6095 30.8179 15.5128Z" fill="#5F1BBD"/>
<path d="M27.5782 15.9854C27.8368 15.9779 28.0812 15.8053 29.4619 16.1697C29.4989 16.1864 29.5407 16.189 29.5795 16.177C29.6182 16.165 29.6513 16.1392 29.6723 16.1046C29.6934 16.0699 29.701 16.0287 29.6937 15.9887C29.6865 15.9488 29.6648 15.9129 29.6329 15.8879C29.002 15.5428 28.2723 15.4231 27.5641 15.5484C26.9997 15.548 27.0421 16.129 27.5782 15.9854Z" fill="#5F1BBD"/>
<path d="M27.7527 10.2704C28.2053 10.0127 28.7341 9.92212 29.2467 10.0143C29.293 10.014 29.3375 9.99628 29.3715 9.96478C29.4055 9.93328 29.4265 9.89023 29.4304 9.84406C29.4343 9.79789 29.4208 9.75194 29.3926 9.71519C29.3644 9.67844 29.3234 9.65356 29.2778 9.64541C28.9777 9.57708 28.6661 9.57653 28.3657 9.64379C28.0654 9.71106 27.7838 9.84446 27.5415 10.0343C27.3506 10.1816 27.6153 10.4318 27.7527 10.2704Z" fill="#5F1BBD"/>
<path d="M32.0161 11.0838C32.1689 11.2144 32.3053 11.363 32.4224 11.5262C32.5268 11.7004 32.6114 11.8857 32.6747 12.0786C32.6905 12.1122 32.7166 12.1399 32.7491 12.1578C32.7816 12.1758 32.819 12.1829 32.8558 12.1783C32.8926 12.1737 32.9271 12.1576 32.9542 12.1322C32.9813 12.1068 32.9997 12.0735 33.0067 12.0371C32.9949 11.7811 32.9048 11.5348 32.7486 11.3316C32.6147 11.1136 32.4223 10.9375 32.1933 10.8232C32.159 10.8074 32.1202 10.8043 32.0838 10.8144C32.0473 10.8246 32.0157 10.8473 31.9944 10.8785C31.9732 10.9098 31.9637 10.9476 31.9677 10.9852C31.9717 11.0227 31.9888 11.0577 32.0161 11.0838Z" fill="#5F1BBD"/>
<path d="M27.4827 47.3358C27.4827 47.3358 57.564 47.3553 58.0923 47.3296C58.0923 47.4541 58.0819 48.5485 58.1338 49.1116C58.1298 49.558 58.1758 50.0034 58.2707 50.4396C58.2706 50.4499 58.2735 50.4599 58.2789 50.4686C58.2844 50.4773 58.2922 50.4842 58.3014 50.4886C58.3107 50.4929 58.321 50.4945 58.3312 50.4932C58.3413 50.4919 58.3509 50.4877 58.3587 50.4811C58.7629 50.8631 59.2375 51.1629 59.756 51.3638C62.7307 52.5445 66.9152 52.0204 67.8676 50.5674C67.8767 50.5544 67.8829 50.5396 67.8858 50.524C67.8888 50.5084 67.8885 50.4923 67.8848 50.4769C67.8812 50.4614 67.8743 50.4469 67.8647 50.4343C67.8551 50.4216 67.8429 50.4112 67.829 50.4035C68.0508 49.3929 68.1896 48.3658 68.244 47.3325C68.9058 47.3729 69.5692 47.3773 70.2315 47.3458C70.8461 47.3458 70.6141 46.8258 70.253 46.9047C69.595 46.8746 68.9359 46.88 68.2785 46.9208C68.3154 46.415 68.3374 45.9087 68.3411 45.4015C68.4735 45.2036 68.7291 43.8835 67.9415 43.6457C67.3767 42.0653 63.6442 40.4751 63.1337 41.83C63.0993 41.8786 62.8727 42.2683 62.8511 42.3077C62.8147 42.3811 62.7903 42.4598 62.7789 42.5409C62.615 42.4874 62.4469 42.4372 62.2697 42.3965C61.0247 42.106 59.9216 42.255 59.5203 42.7376C59.3996 42.6869 59.2687 42.6653 59.138 42.6745C59.0074 42.6836 58.8808 42.7233 58.7683 42.7903C58.1508 43.2053 58.2355 43.1497 58.2288 43.1539C57.7943 43.4577 57.7723 44.2072 58.1724 45.1513C58.118 45.7493 58.0948 46.3486 58.0919 46.9486C55.6683 46.8416 30.2919 46.9711 30.2943 46.8997C30.4653 44.1341 31.1683 41.4287 31.9128 38.7997C34.0957 41.4972 36.7779 44.2445 40.2913 44.7002C42.3445 44.931 44.4221 44.6086 46.3088 43.7664C48.1043 43.0099 49.7792 41.994 51.2796 40.751C52.9701 39.3381 54.5775 37.8286 56.0936 36.23C56.214 36.6364 56.4541 36.9971 56.7826 37.265C57.437 37.7261 58.816 37.9241 59.4531 36.9949C59.8625 36.3787 60.0315 35.6337 59.9282 34.9012C59.9328 34.8182 59.9353 34.7323 59.9332 34.6476C60.226 34.4316 60.4399 34.1257 60.5422 33.7765C60.6445 33.4274 60.6296 33.0544 60.4997 32.7146C60.1735 31.9973 59.5799 31.436 58.8455 31.1504C57.3391 30.4682 55.521 30.7641 54.637 31.6671L43.5992 35.6154C39.8862 29.7494 37.6324 22.1756 30.4794 19.0893C30.599 18.7573 30.6479 18.3319 30.3076 18.2477V18.2381C30.982 18.0192 31.581 17.6148 32.0361 17.0711C32.6583 16.3331 33.1495 15.494 33.4886 14.5903C33.7376 13.9217 33.6322 14.0437 33.7467 14.0437C33.88 14.0371 34.0069 13.9846 34.1057 13.895C34.2046 13.8054 34.2694 13.6843 34.2891 13.5523C34.3472 13.5808 34.4114 13.5943 34.476 13.5918C34.5405 13.5892 34.6035 13.5706 34.6591 13.5377C34.7147 13.5048 34.7612 13.4585 34.7945 13.4031C34.8278 13.3477 34.8468 13.2849 34.8498 13.2203C34.9219 13.2084 34.9905 13.1804 35.0504 13.1385C35.1102 13.0965 35.1599 13.0416 35.1958 12.9779C35.2316 12.9142 35.2527 12.8432 35.2575 12.7703C35.2622 12.6973 35.2506 12.6242 35.2233 12.5563C35.2722 12.5482 35.319 12.5303 35.3609 12.5036C35.4027 12.477 35.4388 12.4421 35.4668 12.4012C35.4949 12.3603 35.5144 12.3141 35.5242 12.2655C35.534 12.2168 35.5338 12.1667 35.5238 12.1181C35.6463 12.0866 35.7518 12.0089 35.8182 11.9013C35.8846 11.7936 35.9067 11.6644 35.8798 11.5408C35.9295 11.523 35.9747 11.4946 36.0121 11.4575C36.0496 11.4204 36.0786 11.3755 36.0969 11.326C36.1152 11.2766 36.1224 11.2237 36.1181 11.1711C36.1138 11.1185 36.0981 11.0675 36.072 11.0217C36.2193 10.91 36.4114 10.6137 36.3438 10.4365C36.4017 10.4252 36.4558 10.3994 36.501 10.3614C36.5462 10.3235 36.581 10.2747 36.6022 10.2196C36.6234 10.1645 36.6303 10.105 36.6222 10.0465C36.6141 9.98807 36.5912 9.93264 36.5559 9.88541C36.7024 9.8399 36.8291 9.74596 36.9153 9.61898C36.9455 9.57374 36.9152 9.5505 36.7982 9.38948C36.8683 9.37314 36.9322 9.33709 36.9824 9.2856C37.0326 9.23411 37.067 9.16931 37.0816 9.09888C37.0962 9.02845 37.0903 8.95531 37.0646 8.88812C37.039 8.82092 36.9946 8.76247 36.9368 8.71968C36.9905 8.68063 37.0356 8.63104 37.0694 8.57395C37.1032 8.51686 37.125 8.45347 37.1335 8.38766C37.142 8.32185 37.1369 8.255 37.1187 8.19121C37.1004 8.12742 37.0693 8.06802 37.0273 8.01666C37.0594 7.98942 37.0854 7.95561 37.1033 7.9175C37.1213 7.87939 37.1308 7.83788 37.1314 7.79575C37.1319 7.75363 37.1235 7.71188 37.1065 7.67331C37.0895 7.63475 37.0645 7.60027 37.0331 7.5722C37.0751 7.52935 37.1078 7.47838 37.1294 7.42242C37.1509 7.36646 37.1608 7.30669 37.1584 7.24678C37.1561 7.18686 37.1415 7.12805 37.1156 7.07397C37.0897 7.01989 37.053 6.97167 37.0078 6.93227C37.0631 6.8916 37.1079 6.83823 37.1383 6.77666C37.1687 6.71509 37.1839 6.64712 37.1825 6.57846C37.1812 6.5098 37.1634 6.44247 37.1306 6.38214C37.0978 6.3218 37.051 6.27022 36.9941 6.23175C37.0323 6.184 37.0598 6.12857 37.0746 6.06923C37.0894 6.0099 37.0912 5.94806 37.0798 5.88797C37.0685 5.82787 37.0444 5.77092 37.009 5.72103C36.9737 5.67113 36.9279 5.62947 36.875 5.59888C36.9129 5.55365 36.9398 5.50022 36.9536 5.44282C36.9673 5.38541 36.9676 5.3256 36.9542 5.26809C36.9409 5.21059 36.9144 5.15696 36.8768 5.11145C36.8392 5.06594 36.7916 5.02978 36.7376 5.00584C36.7789 4.95497 36.8065 4.89445 36.8179 4.82996C36.8294 4.76548 36.8242 4.69915 36.803 4.6372C36.7817 4.57526 36.7451 4.51972 36.6965 4.47583C36.6479 4.43193 36.5889 4.4011 36.5252 4.38624C36.5932 4.2053 36.4007 3.90318 36.2114 3.81728C36.2459 3.77091 36.2666 3.71572 36.2711 3.65809C36.2755 3.60046 36.2636 3.54275 36.2366 3.49162C36.2097 3.44049 36.1688 3.39803 36.1187 3.36915C36.0687 3.34027 36.0115 3.32614 35.9537 3.32841C35.9751 3.2629 35.9777 3.19272 35.9614 3.12578C35.945 3.05885 35.9103 2.9978 35.8612 2.94951C35.8054 2.90814 35.7398 2.88227 35.6708 2.87454C35.6018 2.86681 35.532 2.8775 35.4686 2.90552C35.4668 2.84456 35.4523 2.78463 35.4262 2.72953C35.4 2.67444 35.3627 2.62538 35.3166 2.58546C35.2705 2.54555 35.2166 2.51565 35.1583 2.49767C35.1 2.47968 35.0386 2.474 34.978 2.48098C34.9949 2.41141 34.9917 2.33848 34.9689 2.27063C34.946 2.20279 34.9044 2.14281 34.8489 2.09765C34.7933 2.05248 34.7261 2.02398 34.655 2.01543C34.584 2.00689 34.5119 2.01866 34.4472 2.04938C34.4494 1.96791 34.4284 1.88749 34.3869 1.8174C34.3453 1.74731 34.2847 1.6904 34.2122 1.65323C34.1397 1.61605 34.0581 1.60013 33.9769 1.6073C33.8958 1.61446 33.8183 1.64442 33.7534 1.69372C33.7397 1.6273 33.7124 1.56444 33.6732 1.50915C33.634 1.45385 33.5836 1.40733 33.5254 1.37255C33.4672 1.33777 33.4024 1.31548 33.3351 1.30712C33.2678 1.29875 33.1996 1.30449 33.1346 1.32396C33.1249 1.26992 33.1037 1.21862 33.0723 1.17355C33.041 1.12848 33.0003 1.0907 32.953 1.06281C32.9057 1.03491 32.853 1.01755 32.7984 1.01191C32.7438 1.00627 32.6886 1.01249 32.6366 1.03014C32.6287 0.957717 32.6014 0.888783 32.5574 0.830687C32.5135 0.772591 32.4546 0.727511 32.387 0.70025C32.3195 0.67299 32.2458 0.664572 32.1738 0.675894C32.1019 0.687215 32.0343 0.717852 31.9784 0.764539C31.9531 0.713142 31.9173 0.667661 31.8733 0.63107C31.8292 0.59448 31.7779 0.567607 31.7228 0.552211C31.6676 0.536814 31.6098 0.533241 31.5532 0.541725C31.4965 0.550209 31.4423 0.57056 31.3941 0.601444C31.3864 0.529518 31.3603 0.460786 31.3183 0.40187C31.2764 0.342954 31.2199 0.29584 31.1545 0.265067C31.089 0.234294 31.0167 0.2209 30.9446 0.226173C30.8724 0.231446 30.8028 0.25521 30.7425 0.295175C30.6599 0.195701 30.5412 0.132974 30.4124 0.120689C30.2837 0.108405 30.1553 0.147559 30.0553 0.229604C30.0258 0.169537 29.9808 0.118381 29.925 0.0813518C29.8693 0.0443228 29.8047 0.022746 29.7379 0.0188226C29.671 0.0148992 29.6044 0.0287694 29.5447 0.0590183C29.4849 0.0892671 29.4343 0.134812 29.3979 0.191009C29.3687 0.148909 29.3301 0.114151 29.2852 0.0894573C29.2403 0.0647632 29.1903 0.050804 29.139 0.0486735C29.0878 0.046543 29.0368 0.0562991 28.99 0.0771772C28.9432 0.0980554 28.9019 0.129489 28.8692 0.169014C28.833 0.112504 28.782 0.0670063 28.7217 0.0374667C28.6614 0.00792717 28.5942 -0.00452444 28.5273 0.0014647C28.4604 0.00745383 28.3965 0.0316549 28.3424 0.0714377C28.2883 0.11122 28.2462 0.165063 28.2206 0.227114C28.1699 0.188717 28.1113 0.161967 28.0491 0.148767C27.9869 0.135568 27.9225 0.136242 27.8606 0.150744C27.7987 0.165246 27.7407 0.193218 27.6908 0.23267C27.6409 0.272122 27.6003 0.322086 27.5719 0.379005C27.5241 0.342355 27.4689 0.316561 27.4101 0.303416C27.3513 0.29027 27.2903 0.290089 27.2314 0.302885C27.1725 0.315681 27.1171 0.341146 27.0691 0.377512C27.021 0.413877 26.9815 0.460269 26.9532 0.513464C26.905 0.476894 26.8492 0.451749 26.7899 0.439928C26.7306 0.428107 26.6694 0.429921 26.6109 0.445232C26.5524 0.460543 26.4982 0.488951 26.4523 0.528308C26.4064 0.567665 26.3701 0.61694 26.346 0.672409C26.2931 0.648861 26.2361 0.636091 26.1782 0.634845C26.1203 0.633599 26.0627 0.643902 26.0089 0.665153C25.955 0.686404 25.9059 0.718175 25.8645 0.758611C25.8231 0.799047 25.7901 0.847337 25.7675 0.90066C25.6185 0.8662 25.462 0.887811 25.3279 0.961369C25.1938 1.03493 25.0915 1.15528 25.0404 1.29947C24.9994 1.29083 24.9571 1.29044 24.9159 1.29831C24.8747 1.30619 24.8355 1.32218 24.8005 1.34535C24.7656 1.36852 24.7356 1.39841 24.7123 1.43328C24.689 1.46816 24.6729 1.50731 24.6649 1.54847C24.5697 1.5493 24.4784 1.58645 24.4097 1.65232C24.3409 1.71819 24.3 1.80781 24.2951 1.90288C24.2509 1.89711 24.206 1.90049 24.1631 1.91281C24.1202 1.92513 24.0804 1.94612 24.046 1.97449C24.0116 2.00286 23.9834 2.038 23.9631 2.07772C23.9429 2.11745 23.931 2.16091 23.9282 2.20542C23.886 2.19684 23.8422 2.19902 23.801 2.21177C23.7598 2.22452 23.7225 2.24742 23.6924 2.27837C23.6624 2.30932 23.6406 2.34733 23.6291 2.38889C23.6176 2.43046 23.6167 2.47426 23.6265 2.51625C23.5853 2.5181 23.545 2.52891 23.5084 2.54795C23.4718 2.56698 23.4398 2.59377 23.4146 2.62645C23.3895 2.65913 23.3717 2.69692 23.3627 2.73716C23.3536 2.77741 23.3534 2.81914 23.3622 2.85946C23.3209 2.86045 23.2804 2.87156 23.2444 2.89181C23.2084 2.91205 23.1779 2.94082 23.1556 2.97559C23.1333 3.01036 23.1198 3.05008 23.1164 3.09126C23.113 3.13244 23.1197 3.17382 23.136 3.21179C23.0867 3.21805 23.0392 3.2347 22.9968 3.26063C22.9543 3.28657 22.9179 3.32121 22.8898 3.36227C22.8617 3.40332 22.8427 3.44987 22.8339 3.49882C22.8251 3.54778 22.8268 3.59805 22.8389 3.6463C22.7843 3.64926 22.7315 3.66705 22.6862 3.69776C22.6409 3.72847 22.6049 3.77094 22.582 3.8206C22.5544 3.9229 22.5551 4.03076 22.5841 4.13268C22.5292 4.13311 22.4764 4.15353 22.4355 4.19013C22.3946 4.22673 22.3685 4.27698 22.362 4.33146C22.3542 4.4067 22.3662 4.48269 22.3969 4.55183C22.2272 4.61242 22.1649 4.95687 22.3205 5.1486C22.2679 5.17201 22.2209 5.20633 22.1825 5.24927C22.1441 5.29222 22.1153 5.34282 22.0979 5.39774C22.0805 5.45265 22.075 5.51062 22.0817 5.56783C22.0884 5.62504 22.1071 5.68018 22.1367 5.7296C22.0765 5.74794 22.0221 5.7817 21.9789 5.82753C21.9357 5.87336 21.9053 5.92967 21.8906 5.99089C21.8758 6.0521 21.8774 6.1161 21.895 6.17654C21.9126 6.23699 21.9457 6.29178 21.991 6.3355C21.9291 6.36221 21.8759 6.40577 21.8375 6.46123C21.7991 6.51669 21.777 6.58182 21.7738 6.6492C21.7706 6.71658 21.7864 6.7835 21.8194 6.84235C21.8523 6.9012 21.9012 6.94961 21.9603 6.98207C21.9109 7.01184 21.8706 7.05454 21.8437 7.10556C21.8168 7.15658 21.8043 7.21397 21.8077 7.27155C21.811 7.32913 21.83 7.3847 21.8626 7.43227C21.8952 7.47985 21.9402 7.51761 21.9927 7.54149C21.9464 7.581 21.909 7.62971 21.8826 7.68451C21.8562 7.73932 21.8416 7.79901 21.8395 7.85979C21.8451 7.91863 21.8677 7.97458 21.9046 8.02079C21.9414 8.067 21.9909 8.10147 22.047 8.12C22.0043 8.16022 21.9785 8.21515 21.9747 8.27369C21.9709 8.33223 21.9895 8.39003 22.0267 8.4354C22.0109 8.45117 21.9943 8.46694 21.9798 8.48271C21.6329 8.93753 21.4282 9.48473 21.3913 10.0556C21.2791 10.6773 21.3972 11.3185 21.7233 11.8596C21.8578 12.0569 22.0368 12.2198 22.2459 12.3351C22.455 12.4505 22.6882 12.515 22.9268 12.5236C22.7911 12.8074 22.6725 13.0996 22.5658 13.3922C22.4558 13.6951 21.5926 15.9652 21.5698 16.0307C21.4482 16.0627 16.0246 14.8272 10.2598 16.9666C8.47392 17.6022 6.88591 18.695 5.65413 20.1359C3.25543 23.099 3.2131 27.9047 4.07921 31.5816C2.91264 35.5465 1.90419 44.0731 2.06189 46.8507C0.0188472 46.8507 0.115127 46.8312 0.0503871 46.8964C0.0265383 46.9195 0.0101864 46.9493 0.00344796 46.9818C-0.00329047 47.0144 -0.000105149 47.0482 0.0125916 47.0789C0.0252883 47.1096 0.0469118 47.1358 0.0746631 47.1541C0.102414 47.1724 0.135016 47.1819 0.168247 47.1815C1.57717 47.1682 -4.42954 47.2939 27.4827 47.3358ZM3.77875 34.7356C3.92815 33.9442 4.11075 33.1781 4.28422 32.3655C5.21548 35.6855 6.829 38.6005 9.5792 40.6983C12.0177 42.4895 14.9618 42.9514 17.6302 41.6578C19.7333 40.7293 21.5132 39.1971 22.7442 37.2555C25.9053 32.0547 26.6784 27.4167 28.7617 20.3102C29.0724 20.2807 29.3729 20.1837 29.6422 20.026C29.9115 19.8683 30.1431 19.6537 30.3209 19.3972C37.2298 22.6545 38.9367 28.7463 43.315 35.9931C43.3347 36.0269 43.3631 36.055 43.3972 36.0743C43.4313 36.0936 43.47 36.1035 43.5092 36.103C43.5507 36.103 42.9282 36.3404 54.2623 32.2693C53.8124 33.1486 53.5422 34.3575 54.5075 35.0369C54.8108 35.2427 55.1479 35.3934 55.5035 35.4822C55.6606 35.5308 55.8204 35.5704 55.982 35.6009C55.9845 35.6349 55.982 35.6689 55.9862 35.703C55.5297 35.9229 51.7532 40.683 47.0031 42.9655C45.173 43.9105 43.1366 44.3853 41.0773 44.347C37.0518 44.0337 34.7224 41.4196 32.0112 38.454C33.0039 34.9722 34.2356 30.9579 34.1381 27.32C34.1373 27.2895 34.1253 27.2603 34.1044 27.238C34.0835 27.2158 34.0552 27.2019 34.0248 27.1992L33.9775 27.1946C33.9608 27.1932 33.944 27.1951 33.9281 27.2002C33.9122 27.2054 33.8975 27.2137 33.8849 27.2246C33.8723 27.2356 33.862 27.249 33.8546 27.264C33.8473 27.279 33.8431 27.2954 33.8422 27.3121C33.4006 35.3706 30.3454 39.7393 29.8698 46.8889C29.8698 46.898 29.8735 46.8764 29.8748 46.8852H2.46486C2.54922 42.8048 2.98885 38.7396 3.77875 34.7356ZM23.346 12.3845C23.3641 12.3485 23.3709 12.3079 23.3656 12.2679C23.3603 12.2279 23.3432 12.1904 23.3163 12.1603C23.2895 12.1302 23.2542 12.1089 23.2151 12.0991C23.176 12.0893 23.1349 12.0914 23.097 12.1052C22.8915 12.1459 22.6785 12.1211 22.4879 12.0343C22.2973 11.9475 22.1388 11.8031 22.0346 11.6214C21.8002 11.2138 21.704 10.7414 21.7603 10.2747C21.7684 9.83161 21.8732 9.39566 22.0674 8.99731C22.4023 8.32501 22.87 8.12954 23.4464 8.61592C23.6826 8.85152 23.8589 9.14022 23.9606 9.4579C24.0623 9.77557 24.0865 10.113 24.0312 10.4419C23.8809 11.2093 24.5524 11.2665 24.7931 10.9466C24.87 11.0363 24.9782 11.0934 25.0957 11.1062C25.2132 11.119 25.3311 11.0865 25.4256 11.0155C25.6007 10.8228 25.7007 10.5736 25.7073 10.3133C25.7968 10.3311 25.889 10.3294 25.9777 10.3084C26.0664 10.2874 26.1496 10.2474 26.2214 10.1913C26.2933 10.1352 26.3523 10.0643 26.3943 9.98337C26.4362 9.90243 26.4603 9.81339 26.4647 9.72231C26.5677 9.76088 26.6814 9.75968 26.7835 9.71893C26.8856 9.67818 26.9689 9.60081 27.0171 9.50195C27.0754 9.3408 27.0935 9.16786 27.0698 8.99814C27.3433 9.02677 27.4694 8.50553 27.4848 8.23288C27.5677 8.30765 27.6738 8.3518 27.7853 8.35799C27.8968 8.36418 28.007 8.33204 28.0977 8.26691C28.1807 8.20134 28.2498 8.11983 28.3008 8.02718C28.3519 7.93453 28.3838 7.83261 28.3949 7.72741C28.4547 7.77838 28.5259 7.81415 28.6025 7.83168C28.6792 7.84921 28.7589 7.84798 28.8349 7.8281C28.9109 7.80821 28.981 7.77026 29.0392 7.71747C29.0975 7.66468 29.1421 7.59862 29.1693 7.52489C29.2988 7.68902 29.4804 7.80403 29.6842 7.85089C29.8879 7.89776 30.1016 7.87367 30.2898 7.7826C30.3099 7.86996 30.3551 7.94954 30.4198 8.01155C30.4846 8.07356 30.566 8.11529 30.6541 8.13162C30.8152 8.15678 30.9796 8.15001 31.138 8.1117C31.1393 8.17515 31.1588 8.23689 31.1941 8.28962C31.2294 8.34235 31.2791 8.38386 31.3372 8.40923C31.3954 8.4346 31.4596 8.44278 31.5223 8.43278C31.5849 8.42278 31.6434 8.39503 31.6908 8.35281C31.7277 8.42185 31.7784 8.48249 31.8399 8.53088C31.9014 8.57928 31.9723 8.61438 32.048 8.63396C32.1238 8.65354 32.2028 8.65718 32.28 8.64465C32.3573 8.63212 32.4311 8.60368 32.4967 8.56114C32.5084 8.70829 32.578 8.84481 32.6901 8.94075C32.8023 9.03668 32.948 9.08418 33.0952 9.07284C33.0863 9.14624 33.093 9.22071 33.115 9.29131C33.137 9.36191 33.1737 9.42704 33.2227 9.48238C33.2718 9.53773 33.332 9.58205 33.3994 9.61239C33.4669 9.64273 33.54 9.65842 33.6139 9.6584C33.569 9.73346 33.5447 9.81909 33.5436 9.90656C33.5425 9.99404 33.5646 10.0802 33.6077 10.1564C33.6575 10.2202 33.7224 10.2705 33.7965 10.3029C33.8706 10.3353 33.9516 10.3487 34.0322 10.3419C33.7944 12.4169 33.2437 14.7202 31.9987 16.3694C31.5431 17.0855 30.8339 17.6032 30.013 17.819C30.2141 17.4406 30.2796 17.0047 30.1985 16.5839C30.0657 16.1648 29.5722 16.061 29.3104 16.6889C29.0375 17.1554 28.6658 17.5564 28.2214 17.8638C27.9417 18.0348 27.5753 18.1651 27.3914 18.0256C27.0839 17.7569 26.8093 17.4528 26.573 17.1197C26.4406 16.9433 26.1954 16.6155 25.9007 16.7781C25.5779 16.9578 25.4496 17.8123 26.0082 18.6253C25.6571 19.2341 25.282 19.8288 24.8877 20.4098C24.5139 20.3201 24.1553 20.1761 23.8232 19.9824C23.2071 19.6285 22.6956 19.1178 22.3407 18.5023C21.9858 17.8867 21.8002 17.1882 21.8026 16.4777C21.9383 16.3416 22.0039 16.1241 22.9123 13.5992C23.0817 13.2035 23.2271 12.7978 23.3477 12.3845H23.346ZM28.5588 19.852C27.8056 19.5107 27.0952 19.0818 26.4423 18.5743C26.2175 18.2561 26.0749 17.8873 26.0273 17.5007C26.0273 17.2803 26.0746 17.1641 26.0987 17.1512C26.1133 17.1511 26.1276 17.155 26.1402 17.1624C26.5701 17.5774 26.5319 17.9069 27.2632 18.4253C27.5209 18.5294 27.8089 18.5294 28.0666 18.4253C28.6814 18.152 29.1873 17.6812 29.5042 17.0877C29.5561 16.9981 29.6453 16.7478 29.7714 16.7732C29.8976 16.7985 29.913 17.0338 29.8905 17.1516C29.7682 17.5137 29.5381 17.8296 29.2311 18.0572C29.1981 18.0906 29.176 18.1332 29.1676 18.1795C29.1593 18.2257 29.1651 18.2734 29.1843 18.3163C29.2035 18.3592 29.2352 18.3952 29.2752 18.4198C29.3153 18.4444 29.3618 18.4562 29.4087 18.4539C29.5296 18.4348 29.647 18.3977 29.7569 18.3439C29.8673 18.2933 29.8731 18.339 29.8134 18.483C29.8028 18.522 29.8028 18.5631 29.8131 18.6021C29.8235 18.6412 29.844 18.6768 29.8725 18.7054C29.901 18.7341 29.9366 18.7547 29.9756 18.7653C30.0146 18.7758 30.0557 18.7759 30.0947 18.7656C29.9902 19.0881 29.7841 19.3682 29.5073 19.564C29.2305 19.7598 28.8978 19.8609 28.5588 19.852ZM22.3861 19.2993C22.9662 20.0096 23.7498 20.5255 24.6317 20.7775C24.4557 21.0265 24.2759 21.2738 24.0922 21.5195C23.0861 21.1894 22.2226 20.5265 21.6437 19.64C21.0159 18.6195 20.6898 17.4421 20.7033 16.244C20.9373 16.2689 21.1801 16.2995 21.4316 16.3358C21.3767 17.4071 21.7163 18.4614 22.3861 19.2993ZM20.3343 16.2071C20.2787 17.5208 20.6262 18.8201 21.3303 19.9305C21.91 20.8481 22.79 21.5363 23.8203 21.8777C21.0423 25.4504 17.2413 28.1404 14.8563 32.3207C14.785 29.566 14.0566 26.905 13.4275 24.2697C13.4138 24.2143 13.3786 24.1665 13.3297 24.137C13.2808 24.1074 13.2221 24.0985 13.1667 24.1122C13.1112 24.1259 13.0634 24.1611 13.0339 24.21C13.0044 24.2589 12.9955 24.3176 13.0092 24.3731C13.6782 27.2461 14.4306 30.1391 14.3974 33.1636C14.3981 33.2084 14.4123 33.252 14.4382 33.2886C14.4641 33.3251 14.5005 33.3531 14.5425 33.3686C14.5846 33.3842 14.6303 33.3867 14.6738 33.3758C14.7173 33.3649 14.7565 33.3411 14.7862 33.3076C14.8082 33.2965 14.8265 33.2793 14.839 33.258C14.8514 33.2367 14.8575 33.2123 14.8563 33.1877C17.6298 27.8068 23.0115 24.8204 26.3103 18.9947C26.9346 19.4688 27.6088 19.8732 28.321 20.2006C26.7146 25.7351 25.1616 33.2702 21.7275 37.9498C20.2376 39.847 18.1681 41.2049 15.8345 41.8163C14.3577 42.1315 12.8179 41.94 11.4633 41.2727C4.51205 38.1345 2.28475 26.563 5.33251 21.3527C6.28067 19.8184 7.65866 18.5964 9.29534 17.8385C11.0538 17.0044 12.9413 16.4755 14.8771 16.2743C16.6884 16.0551 18.5182 16.0326 20.3343 16.2071ZM59.8726 34.0994C59.8485 33.977 59.8164 33.8563 59.7768 33.7379C59.6959 33.3335 59.5142 32.9561 59.2485 32.6407C59.2126 32.6061 59.1652 32.586 59.1154 32.5842C59.0656 32.5824 59.0169 32.599 58.9786 32.6308C58.9402 32.6627 58.915 32.7075 58.9077 32.7568C58.9004 32.8061 58.9115 32.8564 58.9389 32.898C59.2776 33.4079 59.4719 34.0001 59.5012 34.6115V34.6165C59.5502 35.5162 59.0169 35.7507 58.9908 34.9315C58.9817 34.5913 58.8889 34.2585 58.7207 33.9626C58.5525 33.6667 58.314 33.4168 58.0263 33.235C57.7482 33.0616 57.4251 32.9743 57.0976 32.984C56.7701 32.9937 56.4527 33.0999 56.1854 33.2893C55.7504 33.5682 55.3226 34.0778 55.6201 34.502C55.7327 34.6263 55.8757 34.719 56.0351 34.7709C56.0105 34.8975 55.9939 35.0256 55.9853 35.1543C55.8737 35.139 55.7641 35.1112 55.6587 35.0713C55.2894 35.0036 54.9422 34.8469 54.647 34.6148C54.4603 34.4216 54.3386 34.175 54.2988 33.9093C53.9597 32.0651 56.1683 30.562 58.4073 31.4438C59.0716 31.6576 59.6381 32.1009 60.0054 32.6942C60.1237 32.9156 60.1742 33.1669 60.1506 33.4168C60.127 33.6667 60.0303 33.9041 59.8726 34.0994ZM55.9409 34.1799C55.9511 34.1101 55.9813 34.0448 56.0281 33.9919C56.1681 33.7959 56.3574 33.6401 56.5767 33.5404C56.364 33.7708 56.214 34.0518 56.141 34.3567C56.0231 34.2986 55.9617 34.2646 55.9409 34.1799ZM58.2799 34.0214C58.4945 34.3729 58.6013 34.7797 58.587 35.1913C58.4606 35.1959 58.3346 35.174 58.2172 35.127C58.123 35.0645 58.0509 34.9738 58.0112 34.8679C57.9716 34.762 57.9664 34.6463 57.9964 34.5372C58.0069 34.4367 58.0373 34.3393 58.086 34.2507C58.1347 34.1621 58.2006 34.0841 58.2799 34.0214ZM57.3602 36.8065C56.9933 36.3171 56.8185 35.7102 56.8688 35.1006C56.9192 34.4911 57.1911 33.9211 57.6333 33.4985C57.765 33.5535 57.888 33.6273 57.9985 33.7176C57.8741 33.8112 57.7712 33.9304 57.6968 34.0671C57.6224 34.2039 57.5783 34.355 57.5673 34.5103C57.5272 34.7386 57.5746 34.9736 57.7001 35.1686C57.8255 35.3636 58.0198 35.5041 58.2442 35.5623C58.4766 35.6075 58.7007 35.5664 58.7787 35.749C58.8058 35.834 58.8152 35.9237 58.8064 36.0124C58.7976 36.1012 58.7708 36.1872 58.7277 36.2653C58.7006 36.3478 58.6506 36.4208 58.5835 36.4758C58.5164 36.5309 58.435 36.5657 58.3489 36.5762C58.2627 36.5866 58.1754 36.5723 58.0971 36.5349C58.0188 36.4975 57.9528 36.4385 57.9068 36.3649C57.8799 36.32 57.8369 36.2868 57.7866 36.2722C57.7363 36.2576 57.6824 36.2626 57.6355 36.2861C57.5887 36.3097 57.5526 36.35 57.5343 36.3991C57.516 36.4482 57.517 36.5024 57.537 36.5508C57.6022 36.7045 57.7151 36.8332 57.859 36.9179C58.0029 37.0026 58.1703 37.0387 58.3363 37.021C58.3405 37.1127 58.345 37.1584 58.4276 37.2078C58.3475 37.2283 58.2654 37.2399 58.1828 37.2422C58.023 37.2302 57.8675 37.1853 57.726 37.1103C57.5844 37.0353 57.4599 36.9319 57.3602 36.8065ZM58.7044 36.8895C58.8791 36.7802 59.0198 36.6244 59.1107 36.4396C59.2017 36.2548 59.2394 36.0483 59.2194 35.8432C59.314 35.834 59.405 35.8021 59.4846 35.7503C59.467 36.0194 59.3873 36.2807 59.2516 36.5137C59.116 36.7467 58.9281 36.9451 58.7028 37.0932C58.7069 37.0741 58.7044 36.9106 58.7044 36.8903V36.8895ZM66.4205 45.177C66.6456 45.4515 66.8412 45.7489 67.004 46.0643C66.4816 46.3096 65.923 46.4689 65.3498 46.5361C65.322 46.4946 64.3281 45.4327 64.2027 44.4387C64.1612 44.1304 64.2206 43.8577 64.5347 43.8623L64.5439 43.8652C65.168 43.866 66.0163 44.6827 66.4205 45.1778V45.177ZM63.4632 45.5605C63.6176 45.9375 63.8181 46.2939 64.06 46.6216C63.9056 46.6216 63.7562 46.6216 63.6097 46.6183C63.0399 46.4913 62.5047 46.2414 62.0414 45.8862C62.0149 45.775 61.9788 45.6671 61.9439 45.5588C62.4456 45.6561 62.9612 45.657 63.4632 45.5613V45.5605ZM67.9693 45.3326C67.7927 45.535 67.5885 45.7115 67.3626 45.8568C67.1606 45.4637 66.9096 45.0978 66.6156 44.7678C66.8529 44.4977 67.4348 43.9486 67.7809 44.0266C68.3054 44.1026 67.9377 45.2106 67.9693 45.3335V45.3326ZM65.9632 42.299C66.4481 42.5535 66.8845 42.8915 67.2522 43.2975C66.8563 43.2356 66.3537 43.4963 65.8449 44.0329C65.4923 43.729 65.0639 43.5265 64.6053 43.4469C64.1733 43.151 63.3043 42.3583 63.5263 41.9421C63.718 41.5914 64.8008 41.6698 65.9632 42.2998V42.299ZM63.9799 43.6639C63.7106 43.9544 63.3491 43.9623 63.2868 44.5533C62.6141 44.6114 61.9366 44.5266 61.299 44.3043C60.9403 43.7509 60.4693 43.2791 59.9166 42.9194C60.6578 42.3567 63.1022 42.7667 63.9799 43.6664V43.6639ZM59.2904 43.0979C59.6946 43.1775 60.3561 43.6818 60.9965 44.5919C61.3891 45.1392 61.6356 45.7777 61.7127 46.4469C61.1241 46.3506 60.5434 46.2105 59.9756 46.0278C59.4361 45.4779 58.643 43.9922 58.8841 43.3095C58.8942 43.2675 58.9132 43.2281 58.9399 43.194C58.9665 43.16 59.0001 43.132 59.0384 43.112C59.0768 43.092 59.119 43.0805 59.1621 43.0782C59.2053 43.0759 59.2485 43.0829 59.2887 43.0987L59.2904 43.0979Z" fill="#5F1BBD"/>
<path d="M78.9942 64.4898C78.9942 64.4898 47.2397 49.9051 47.0741 49.8445C46.7563 49.8003 46.434 49.8003 46.1163 49.8445C46.1163 49.8445 41.5421 49.9561 40.9254 49.9661C39.8207 48.8086 35.9645 48.7949 35.523 50.086C25.9858 50.179 14.5696 50.181 14.524 50.208C14.4927 50.2188 14.4653 50.2383 14.4449 50.2643C14.4245 50.2903 14.412 50.3216 14.4089 50.3545C14.4059 50.3874 14.4124 50.4204 14.4276 50.4497C14.4429 50.479 14.4662 50.5033 14.4949 50.5197L38.3524 65.2742C38.5064 65.3848 38.6954 65.4356 38.884 65.4169C58.8277 65.1343 78.8191 64.8525 78.9133 64.8521C78.9562 64.8514 78.9975 64.8363 79.0308 64.8093C79.064 64.7822 79.0872 64.7447 79.0965 64.7029C79.1059 64.661 79.1009 64.6173 79.0823 64.5786C79.0637 64.54 79.0327 64.5087 78.9942 64.4898ZM38.6799 65.0389L32.3615 61.1586C33.4741 61.1532 39.5302 61.0267 40.3565 61.013C44.035 63.1984 45.5141 64.0865 47.05 64.9268C47.0064 64.9268 38.8156 65.0513 38.6799 65.0389ZM22.6409 50.5052C22.6866 50.5699 23.305 50.8662 27.162 53.1466C23.344 53.1931 22.1512 53.1466 19.5426 53.2338C19.4969 53.2338 19.9401 53.4986 15.1182 50.5288C17.7282 50.528 20.224 50.5197 22.6409 50.5052ZM35.4877 50.3487C35.4952 50.4686 35.4669 50.9135 35.4636 50.955C35.4018 52.2174 38.4744 52.8034 40.1896 52.1913C40.7885 51.9776 41.13 51.6481 41.1512 51.2667C41.1512 51.2522 41.157 51.1007 41.1612 50.9496C41.2545 51.0052 43.3478 52.0585 43.4893 52.134C42.5672 52.2199 41.8484 52.4984 41.5131 52.896C40.5254 52.896 37.4876 52.9624 37.3261 52.9661C35.8035 52.0988 34.2966 51.2285 32.7292 50.3931C33.6485 50.3795 34.5681 50.3645 35.4877 50.3479V50.3487ZM19.9667 53.5152C21.8462 53.5724 23.1365 53.5446 27.772 53.5081C28.5912 53.9937 32.3474 56.233 32.9736 56.6069C26.6117 56.843 26.3336 56.8493 25.5094 56.9281L19.9667 53.5152ZM32.1859 50.4027C33.5721 51.2563 35.0121 52.0809 36.5704 52.9823C36.4941 52.9823 29.9209 53.1105 27.8762 53.1371C26.2963 52.2145 24.7276 51.292 23.2132 50.5014C25.917 50.484 31.8087 50.4089 32.1864 50.4031L32.1859 50.4027ZM46.4756 52.9827C47.3849 53.4222 47.4559 53.9787 46.3362 54.3547C44.8476 54.8494 42.6506 54.4833 41.9289 53.7986C41.8686 53.7506 41.8187 53.6906 41.7825 53.6225C41.7463 53.5544 41.7245 53.4796 41.7185 53.4027C41.743 52.9591 42.7145 52.5204 44.1214 52.5204C44.9302 52.5057 45.7329 52.6634 46.4761 52.9831L46.4756 52.9827ZM28.5008 53.5019C28.5008 53.5019 34.6149 53.4143 37.2157 53.3562C37.222 53.3595 40.4735 55.2582 41.6409 55.9105C40.6914 55.8425 39.4065 55.9404 38.6566 56.472C37.914 56.4362 37.17 56.4424 36.4281 56.4907C36.4281 56.4907 33.8364 56.5737 33.7032 56.5787C31.993 55.5615 30.2475 54.5257 28.5008 53.5019ZM41.3147 53.5434C41.3097 53.6438 41.2861 54.0866 41.2828 54.1389C41.2288 54.9544 42.551 55.6466 44.3255 55.7466C45.0577 55.7997 45.7933 55.7115 46.4922 55.4868C47.1471 55.2532 47.5206 54.895 47.5434 54.4813C47.5434 54.4668 47.5488 54.3227 47.553 54.1713C48.8735 54.9436 50.1804 55.5823 51.522 56.2799C43.4989 56.2969 43.8445 56.3409 43.7748 56.4247C43.3832 56.2412 42.9694 56.109 42.5439 56.0313C42.5128 55.9533 41.9903 55.6163 37.9852 53.3409C39.1144 53.3201 40.2262 53.3039 41.3263 53.2442C41.3007 53.3419 41.2967 53.444 41.3147 53.5434ZM41.3807 58.459C40.6695 58.4343 39.9695 58.2743 39.3181 57.9876C39.0276 57.844 38.5757 57.5585 38.5931 57.2331C38.6205 56.7252 39.8278 56.2247 41.5064 56.3139C42.312 56.3579 44.0882 56.7028 44.2869 57.4253C44.5023 58.2038 42.5136 58.5192 41.3807 58.4595V58.459ZM38.3163 56.8136C38.2011 56.978 38.1555 57.1813 38.1893 57.3792C38.1844 57.4784 38.1595 57.9482 38.1557 58.0017C38.0632 59.3945 41.5633 60.1207 43.5819 59.3999C44.262 59.1571 44.6496 58.7861 44.6737 58.3578C44.6737 58.3304 44.6874 57.8872 44.692 57.7187C44.7013 57.6815 44.7076 57.6436 44.7111 57.6054C46.3487 58.613 48.0261 59.5932 49.6911 60.5498C46.9761 60.5693 40.6001 60.6652 40.6001 60.6652C39.5904 60.0684 35.4093 57.5909 34.3286 56.9484C37.7291 56.8368 37.5751 56.8829 38.3163 56.814V56.8136ZM44.677 57.2842C44.583 57.0357 44.4137 56.8229 44.1927 56.6754C44.7148 56.6887 52.2691 56.6708 52.2691 56.6708L59.6187 60.5257C58.98 60.5257 52.25 60.5345 50.4916 60.5457C50.3646 60.4739 44.819 57.3361 44.677 57.2846V57.2842ZM60.4599 60.5257C57.9898 59.2322 55.5119 57.9403 53.0658 56.6708C59.9009 56.6737 60.7674 56.6945 60.9259 56.6376C60.9845 56.6156 60.4587 56.3919 69.6194 60.5934C66.5679 60.5411 63.4919 60.527 60.4599 60.5262V60.5257ZM52.3097 56.2782C48.5121 54.3223 48.4452 54.2501 47.5617 53.8687C47.593 53.7339 47.5898 53.5934 47.5525 53.4602C47.5151 53.3269 47.4448 53.2053 47.348 53.1064C47.3895 53.1064 53.0177 53.1587 53.1721 53.0504L60.2395 56.2915C59.2962 56.2475 59.3593 56.2732 52.3097 56.2786V56.2782ZM47.0264 52.8242C46.1897 52.3415 45.2382 52.094 44.2724 52.1079C44.0317 51.9428 43.7759 51.8007 43.5084 51.6838C41.3047 50.5778 41.5459 50.6645 41.1869 50.5363C41.1867 50.4559 41.1726 50.3762 41.1454 50.3006C41.8405 50.2881 45.2423 50.2375 46.2686 50.2142C46.5484 50.1655 46.8358 50.1843 47.1069 50.269L52.4521 52.7204C52.411 52.72 47.7646 52.7428 47.0264 52.8246V52.8242ZM33.5887 56.9742C34.2008 57.3402 38.3288 59.8074 39.7995 60.6826C34.566 60.7868 33.477 60.7905 31.9432 60.8876C31.9017 60.8901 32.2905 61.1155 25.9917 57.2257C26.6249 57.2211 26.3776 57.2165 33.5887 56.9738V56.9742ZM47.8144 64.9144C46.8579 64.3334 41.8202 61.3869 41.162 60.9993C43.4798 60.9615 49.5653 60.908 50.3053 60.9042C50.7916 61.1831 56.2124 64.2873 57.103 64.7799L47.8144 64.9144ZM57.8284 64.7695C57.7325 64.645 51.2457 60.9719 51.1199 60.9009C53.9137 60.8905 56.9332 60.8934 60.3503 60.9096C60.3503 60.9096 66.6654 64.2234 67.4821 64.6297L57.8284 64.7695ZM68.2034 64.6197C65.9259 63.3241 63.589 62.1596 61.2048 60.9138C62.2614 60.9192 70.3091 60.9789 70.3796 60.9416L78.063 64.477L68.2034 64.6197ZM36.5804 49.7366C37.7611 49.3885 39.0257 49.457 40.1618 49.9308C40.5594 50.1234 40.959 50.4342 40.671 50.7666C40.383 51.099 39.4576 51.3837 38.2823 51.3227C37.6117 51.2878 36.2961 51.0521 35.9583 50.4794C35.7558 50.1263 36.1948 49.8731 36.5779 49.737L36.5804 49.7366Z" fill="#5F1BBD"/>
<path d="M36.8249 50.19L37.0013 50.2241C37.0154 50.3078 37.0541 50.3855 37.1124 50.4473C37.1706 50.5092 37.2459 50.5523 37.3287 50.5714C37.9554 50.7897 38.6841 50.2672 39.366 50.4349C39.4569 50.4493 39.5426 50.4867 39.615 50.5436C39.5183 50.6515 39.3901 50.7262 39.2485 50.757C39.1069 50.7878 38.9592 50.7731 38.8265 50.715C38.7765 50.6919 38.7194 50.6897 38.6678 50.7087C38.6161 50.7277 38.5742 50.7665 38.5511 50.8165C38.528 50.8664 38.5258 50.9235 38.5448 50.9752C38.5638 51.0268 38.6026 51.0688 38.6526 51.0918C38.8585 51.1815 39.0865 51.2079 39.3074 51.1674C39.5283 51.127 39.7322 51.0216 39.893 50.8648C39.915 50.8677 40.142 50.8988 40.1644 50.8988C40.2194 50.9024 40.2736 50.8839 40.315 50.8475C40.3564 50.811 40.3817 50.7596 40.3852 50.7046C40.3887 50.6496 40.3702 50.5954 40.3338 50.554C40.2974 50.5126 40.246 50.4874 40.191 50.4838L40.0225 50.4598C39.9773 50.2564 39.7905 50.1103 39.4672 50.0307C38.6472 49.8277 37.857 50.3764 37.4283 50.1622C37.4636 50.124 37.5064 50.0934 37.554 50.0725C37.6016 50.0515 37.6531 50.0407 37.7051 50.0406C37.7592 50.0508 37.8151 50.0391 37.8606 50.008C37.9061 49.977 37.9373 49.9291 37.9475 49.875C37.9577 49.8209 37.9459 49.765 37.9149 49.7196C37.8838 49.6741 37.836 49.6429 37.7819 49.6327C37.6721 49.619 37.5606 49.6299 37.4556 49.6646C37.3505 49.6992 37.2544 49.7568 37.1743 49.8331L36.9054 49.7808C36.8514 49.7703 36.7954 49.7817 36.7497 49.8125C36.7041 49.8433 36.6725 49.8909 36.662 49.945C36.6515 49.999 36.6629 50.055 36.6937 50.1007C36.7245 50.1463 36.7721 50.1779 36.8262 50.1884L36.8249 50.19Z" fill="#5F1BBD"/>
<path d="M42.7734 53.2668L42.9843 53.3083C42.9963 53.4004 43.0364 53.4867 43.0991 53.5553C43.1618 53.6239 43.2442 53.6715 43.3349 53.6917C44.0151 53.9287 44.8351 53.3535 45.5917 53.5394C45.8195 53.5959 45.8822 53.6685 45.8851 53.6834C45.8851 53.6909 45.8685 53.7444 45.7718 53.8121C45.6559 53.8893 45.5228 53.937 45.3842 53.951C45.2456 53.9649 45.1057 53.9447 44.9767 53.8922C44.9267 53.8691 44.8696 53.8668 44.818 53.8859C44.7663 53.9049 44.7244 53.9437 44.7013 53.9936C44.6783 54.0436 44.676 54.1007 44.695 54.1523C44.714 54.204 44.7528 54.2459 44.8028 54.269C45.0286 54.3674 45.2788 54.3958 45.521 54.3505C45.7632 54.3051 45.9862 54.1881 46.1611 54.0146C46.1839 54.0175 46.447 54.0532 46.4698 54.0532C46.5249 54.0567 46.579 54.0382 46.6204 54.0018C46.6619 53.9654 46.6871 53.914 46.6906 53.859C46.6941 53.8039 46.6757 53.7498 46.6392 53.7084C46.6028 53.6669 46.5514 53.6417 46.4964 53.6382L46.2914 53.6116C46.2441 53.3332 45.9635 53.2024 45.6913 53.1352C45.2471 53.053 44.7894 53.084 44.3604 53.2253C44.0765 53.3311 43.7688 53.3563 43.4715 53.2979C43.4324 53.2846 43.4109 53.2717 43.4017 53.2697C43.4417 53.216 43.494 53.1729 43.5543 53.144C43.6146 53.115 43.681 53.1012 43.7478 53.1037C43.802 53.1137 43.8579 53.1019 43.9033 53.0707C43.9488 53.0395 43.9799 52.9916 43.99 52.9375C44.0001 52.8833 43.9882 52.8274 43.957 52.782C43.9259 52.7365 43.8779 52.7054 43.8238 52.6953C43.7034 52.6808 43.5812 52.6934 43.4663 52.7322C43.3514 52.7711 43.2467 52.8352 43.1598 52.9198L42.8506 52.8601C42.8234 52.8537 42.7952 52.8529 42.7677 52.8576C42.7402 52.8624 42.7139 52.8727 42.6904 52.8879C42.667 52.9031 42.6469 52.9228 42.6312 52.946C42.6156 52.9691 42.6048 52.9952 42.5995 53.0226C42.5942 53.05 42.5945 53.0783 42.6003 53.1056C42.6062 53.1329 42.6175 53.1587 42.6336 53.1816C42.6497 53.2044 42.6702 53.2238 42.6939 53.2385C42.7177 53.2532 42.7442 53.2629 42.7718 53.2672L42.7734 53.2668Z" fill="#5F1BBD"/>
<path d="M43.5877 57.4907L43.3661 57.4616C43.3192 57.1711 43.0316 57.0358 42.7461 56.9636C41.8102 56.7316 40.9956 57.3313 40.4275 57.1334C40.3752 57.1151 40.3503 57.0985 40.3445 57.1031C40.3857 57.0419 40.4418 56.9922 40.5075 56.9587C40.5732 56.9252 40.6463 56.9089 40.72 56.9113C40.7741 56.9215 40.83 56.9098 40.8755 56.8787C40.921 56.8477 40.9522 56.7998 40.9624 56.7457C40.9726 56.6916 40.9608 56.6357 40.9298 56.5903C40.8987 56.5448 40.8509 56.5136 40.7968 56.5034C40.6723 56.4893 40.5462 56.5031 40.4277 56.5438C40.3092 56.5845 40.2012 56.6511 40.1116 56.7387L39.7821 56.6748C39.7281 56.6643 39.6721 56.6758 39.6265 56.7066C39.5809 56.7374 39.5494 56.7851 39.5389 56.8391C39.5285 56.8932 39.5399 56.9491 39.5707 56.9948C39.6016 57.0404 39.6492 57.0719 39.7033 57.0823L39.9307 57.1263C39.9415 57.2221 39.982 57.3121 40.0465 57.3837C40.111 57.4553 40.1963 57.5049 40.2905 57.5255C41.0018 57.7745 41.8521 57.1703 42.646 57.3662C42.8863 57.4259 42.954 57.5015 42.959 57.523C42.9614 57.5338 42.9444 57.5824 42.8685 57.6434C42.7446 57.7344 42.5994 57.7921 42.4468 57.8111C42.2943 57.8301 42.1394 57.8096 41.997 57.7517C41.947 57.7286 41.8899 57.7264 41.8383 57.7454C41.7867 57.7644 41.7447 57.8032 41.7216 57.8532C41.6986 57.9031 41.6963 57.9602 41.7153 58.0119C41.7344 58.0635 41.7731 58.1055 41.8231 58.1285C42.0579 58.2309 42.3181 58.2601 42.5698 58.2125C42.8215 58.1648 43.053 58.0424 43.2341 57.8613C43.2569 57.8642 43.5366 57.9028 43.5595 57.9028C43.5867 57.9045 43.614 57.9009 43.6399 57.8921C43.6657 57.8833 43.6896 57.8695 43.7101 57.8515C43.7307 57.8335 43.7474 57.8116 43.7595 57.7871C43.7715 57.7626 43.7787 57.736 43.7804 57.7088C43.7822 57.6815 43.7786 57.6542 43.7698 57.6283C43.761 57.6025 43.7472 57.5786 43.7292 57.5581C43.7112 57.5376 43.6893 57.5208 43.6648 57.5087C43.6403 57.4967 43.6137 57.4895 43.5864 57.4878L43.5877 57.4907Z" fill="#5F1BBD"/>
</svg>
