<svg width="162" height="65" viewBox="0 0 162 65" fill="none" xmlns="http://www.w3.org/2000/svg">
<path d="M8.704 38.448C5.65333 38.448 3.54133 37.7867 2.368 36.464C1.55733 35.5253 1.152 34.2133 1.152 32.528C1.152 31.8027 1.22667 31.024 1.376 30.192L2.688 22.832C3.648 17.4347 7.11467 14.736 13.088 14.736C15.5627 14.736 17.44 15.2693 18.72 16.336C20 17.3813 20.64 18.8213 20.64 20.656C20.64 21.5093 20.512 22.3627 20.256 23.216C20.0213 24.048 19.7867 24.6667 19.552 25.072L19.2 25.712H13.536C14.24 24.9013 14.592 23.7493 14.592 22.256C14.592 21.4667 14.3893 20.848 13.984 20.4C13.5787 19.9307 12.9813 19.696 12.192 19.696C10.0373 19.696 8.75733 20.8907 8.352 23.28L7.232 29.744C7.12533 30.2987 7.072 30.8427 7.072 31.376C7.072 32.784 7.91467 33.488 9.6 33.488C11.6267 33.488 12.8427 32.3467 13.248 30.064H19.008L18.848 30.992C17.9947 35.9627 14.6133 38.448 8.704 38.448ZM35.9188 38H21.3268L25.3908 14.96H31.1508L27.9828 33.008H36.8148L35.9188 38ZM54.547 38H38.483L42.547 14.96H58.611L57.715 19.952H47.411L46.675 24.272H55.187L54.291 29.264H45.779L45.139 33.008H55.443L54.547 38ZM69.625 38L69.817 32.976H64.473L62.905 38H56.793L65.017 14.96H75.577L75.705 38H69.625ZM68.313 20.56L65.785 28.688H69.977L70.329 20.56H68.313ZM100.557 14.96L96.525 38H90.733L86.701 25.392L84.525 38H78.733L82.797 14.96H88.749L92.717 26.736L94.797 14.96H100.557ZM107.158 31.44C107.158 32.912 108.214 33.648 110.326 33.648C112.459 33.648 113.526 32.9867 113.526 31.664C113.526 30.96 113.163 30.384 112.438 29.936C111.712 29.488 110.827 29.1147 109.782 28.816C108.758 28.5173 107.723 28.176 106.678 27.792C105.654 27.3867 104.779 26.768 104.054 25.936C103.328 25.0827 102.966 24.0267 102.966 22.768C102.966 17.4133 106.411 14.736 113.302 14.736C115.819 14.736 117.718 15.216 118.998 16.176C120.299 17.1147 120.95 18.4267 120.95 20.112C120.95 20.7307 120.864 21.328 120.694 21.904C120.544 22.4587 120.384 22.8533 120.214 23.088L119.958 23.472H114.294C114.763 22.9813 114.998 22.3627 114.998 21.616C114.998 20.2293 114.091 19.536 112.278 19.536C109.995 19.536 108.854 20.2613 108.854 21.712C108.854 22.4373 109.216 23.0133 109.942 23.44C110.667 23.8667 111.542 24.208 112.566 24.464C113.611 24.6987 114.656 24.9973 115.702 25.36C116.747 25.7227 117.632 26.3307 118.358 27.184C119.083 28.016 119.446 29.104 119.446 30.448C119.446 33.1573 118.635 35.1733 117.014 36.496C115.392 37.7973 112.896 38.448 109.526 38.448C106.155 38.448 103.851 37.8507 102.614 36.656C101.696 35.76 101.238 34.5227 101.238 32.944C101.238 32.3467 101.302 31.696 101.43 30.992L101.526 30.48H107.286L107.222 30.864C107.179 31.0773 107.158 31.2693 107.158 31.44ZM137.86 38H121.796L125.86 14.96H141.924L141.028 19.952H130.724L129.988 24.272H138.5L137.604 29.264H129.092L128.452 33.008H138.756L137.86 38ZM154.89 14.96C157.322 14.96 159.05 15.4933 160.074 16.56C160.842 17.3707 161.226 18.3947 161.226 19.632C161.226 20.0587 161.183 20.5067 161.098 20.976L160.65 23.472C160.394 24.8587 159.946 25.9787 159.306 26.832C158.687 27.6853 157.994 28.2933 157.226 28.656L160.138 38H153.674L150.986 29.392H149.002L147.69 38H141.546L145.61 14.96H154.89ZM152.874 19.952H150.474L149.642 25.52H151.882C153.012 25.52 153.823 25.2533 154.314 24.72C154.804 24.1653 155.05 23.44 155.05 22.544C155.05 20.816 154.324 19.952 152.874 19.952Z" fill="white"/>
<path d="M124.719 11.469C122.045 9.80337 121.747 5.89437 121.932 4.14807C122.378 3.76883 124.437 3.81839 125.41 3.89058C126.821 2.75422 126.036 1.37191 125.468 0.822798L122.27 0.762534L122.004 0.353713L109.488 0.117822C103.457 2.07158 102.8 5.8603 103.226 7.51044C107.545 7.2042 108.508 10.1405 108.449 11.6469C109.471 11.7307 109.654 12.3426 109.618 12.638L109.609 13.1224L116.46 13.2515C117.429 12.3007 117.122 8.87606 116.847 7.28261C117.509 7.10125 117.931 6.36084 118.059 6.0133L119.429 6.03912C119.822 8.50161 121.356 10.4903 122.074 11.1768C122.58 11.5094 124.048 11.5102 124.719 11.469Z" fill="white"/>
<path d="M29.6207 41.3928L29.7019 40.8168L45.9481 43.663C45.9951 44.5195 44.3592 44.8075 43.5354 44.8445C39.9846 44.571 38.3227 46.4958 37.9355 47.4923L37.5356 47.4294C37.2517 49.2001 36.6868 52.749 36.6977 52.7786C37.1902 52.9335 37.1169 53.5766 37.0186 53.8788L34.8144 63.5954C33.6823 63.9782 33.144 63.6076 33.0164 63.3745L34.6556 53.4877C34.6567 52.5799 35.1993 52.4615 35.4705 52.5158L36.3958 47.1765L35.9317 47.0531C35.7115 44.8153 33.9049 43.6678 33.0291 43.3738C31.283 42.907 30.0293 41.8586 29.6207 41.3928Z" fill="white"/>
<path d="M29.8684 39.7894L29.7871 40.3654L45.9459 43.2017L46.0271 42.6257L29.8684 39.7894Z" fill="white"/>
<rect x="35.3184" y="8.20117" width="16.3922" height="31.9084" transform="rotate(9.76926 35.3184 8.20117)" fill="#5A16B8"/>
<path d="M35.6443 14.6085C37.6446 13.1114 37.3521 11.1016 36.8639 10.0258C37.7783 11.823 39.2118 12.3141 41.2862 11.7382C39.3897 12.7569 39.5948 14.8765 39.9137 16.0203C38.5317 13.821 36.5929 14.4177 35.6443 14.6085Z" fill="white"/>
<path d="M40.5675 10.7259C41.8059 9.7991 41.6248 8.55491 41.3226 7.88886C41.8886 9.0015 42.7761 9.3055 44.0603 8.94898C42.8862 9.57964 43.0132 10.8918 43.2106 11.5999C42.3551 10.2384 41.1548 10.6078 40.5675 10.7259Z" fill="white"/>
</svg>
